<?xml version="1.0" standalone="no"?>
<!DOCTYPE svg PUBLIC "-//W3C//DTD SVG 20010904//EN"
 "http://www.w3.org/TR/2001/REC-SVG-20010904/DTD/svg10.dtd">
<svg version="1.0" xmlns="http://www.w3.org/2000/svg"
 width="200.000000pt" height="200.000000pt" viewBox="0 0 200.000000 200.000000"
 preserveAspectRatio="xMidYMid meet">
<metadata>
Created by potrace 1.16, written by Peter Selinger 2001-2019
</metadata>
<g transform="translate(0.000000,200.000000) scale(0.100000,-0.100000)"
fill="#000000" stroke="none">
<path d="M400 1720 l0 -140 140 0 140 0 0 75 c0 86 6 84 -83 16 -66 -50 -71
-49 -111 33 -30 61 -32 79 -11 96 19 16 47 -6 65 -50 l12 -29 64 51 c36 30 64
59 64 70 0 17 -11 18 -140 18 l-140 0 0 -140z"/>
<path d="M932 1798 c4 -10 74 -14 296 -16 255 -2 292 0 292 13 0 13 -38 15
-296 15 -232 0 -295 -3 -292 -12z"/>
<path d="M935 1649 c-4 -6 -5 -12 -2 -15 2 -3 134 -5 293 -5 252 0 289 2 292
16 3 13 -31 15 -287 15 -194 0 -292 -4 -296 -11z"/>
<path d="M400 1310 l0 -140 140 0 140 0 0 76 0 76 -35 -26 c-19 -14 -51 -38
-70 -52 -30 -22 -38 -24 -51 -13 -28 23 -66 110 -59 136 9 36 45 27 70 -19
l21 -37 62 50 c38 30 62 58 62 69 0 19 -8 20 -140 20 l-140 0 0 -140z"/>
<path d="M930 1391 c0 -6 4 -12 9 -15 4 -3 136 -6 292 -6 250 -1 284 1 287 14
3 14 -29 16 -292 16 -178 0 -296 -4 -296 -9z"/>
<path d="M937 1243 c-4 -3 -7 -10 -7 -15 0 -4 133 -8 296 -8 232 0 295 3 292
13 -4 9 -72 13 -290 15 -156 1 -287 -1 -291 -5z"/>
<path d="M402 898 l3 -143 135 0 135 0 3 143 3 142 -141 0 -141 0 3 -142z"/>
<path d="M935 979 c-4 -6 -5 -12 -3 -14 2 -3 134 -5 294 -5 255 -1 289 1 292
14 3 14 -29 16 -287 16 -194 0 -292 -4 -296 -11z"/>
<path d="M933 827 c-14 -23 31 -27 297 -25 212 2 284 6 287 15 4 10 -63 13
-287 15 -161 2 -294 -1 -297 -5z"/>
</g>
</svg>
